<?xml version="1.0" encoding="UTF-8"?>
<svg id="Kilo_Code_Branding" xmlns="http://www.w3.org/2000/svg" version="1.1" viewBox="0 0 39.9997627 39.9999944">
  <g transform="scale(0.8)" transform-origin="center">
    <path fill="#C5C5C5" d="m 11.986 35.959 a 1.654 1.654 90 0 1 -0.8 -2.198 l 5.823 -12.489 a 1.103 1.103 90 0 0 -1.998 -0.933 l -2.361 5.063 l -0.174 -0.073 c -0.646 -0.271 -1.281 -0.578 -1.605 -0.814 c -0.243 -0.181 -0.498 -0.468 -0.725 -0.783 c -0.115 -0.154 -0.163 -0.432 -0.009 -0.767 l 1.876 -4.024 a 1.103 1.103 90 0 0 -1.998 -0.933 l -1.458 3.129 l -0.223 -0.079 c -0.653 -0.247 -1.175 -0.525 -1.376 -0.739 c -0.194 -0.203 -0.408 -0.695 -0.571 -1.314 c -0.073 -0.267 -0.123 -0.518 -0.159 -0.703 l 1.255 -2.69 a 1.103 1.103 90 1 0 -1.998 -0.93 l -0.933 1.998 l -0.683 -0.32 a 2.205 2.205 90 0 1 -0.964 -3.124 l 3.071 -5.173 a 5.513 5.513 90 0 1 1.557 -1.685 l 5.065 -3.581 a 1.103 1.103 90 0 1 1.103 -0.099 l 12.593 5.872 a 1.103 1.103 90 0 1 0.637 0.968 l 0.163 6.075 l 2.232 14.377 a 1.14 1.14 90 0 1 -2.205 0.661 l -3.68 -10.888 a 1.103 1.103 90 0 0 -2.035 -0.09 l -7.224 15.488 a 1.654 1.654 90 0 1 -2.196 0.8 m -0.269 -8.558 l -2.529 5.426 a 3.859 3.859 90 1 0 6.994 3.263 l 6.097 -13.076 l 3.299 8.957 a 2.977 2.977 90 0 0 5.513 -1.323 l -1.79 -15.184 l -0.163 -5.987 a 3.308 3.308 90 0 0 -1.909 -2.908 l -12.595 -5.872 a 3.308 3.308 90 0 0 -3.305 0.298 l -5.063 3.576 a 7.718 7.718 90 0 0 -2.183 2.364 l -3.071 5.173 a 4.41 4.41 90 0 0 1.927 6.249 l 1.162 0.54 a 11.025 11.025 90 0 0 0.159 0.677 c 0.168 0.637 0.489 1.612 1.091 2.251 c 0.591 0.631 1.568 1.052 2.214 1.296 l 0.276 0.097 a 2.778 2.778 90 0 0 0.52 1.806 a 5.733 5.733 90 0 0 1.206 1.264 c 0.562 0.412 1.422 0.805 2.055 1.069 z" />
  </g>
</svg>